<svg width="32" height="31" viewBox="0 0 32 31" fill="none" xmlns="http://www.w3.org/2000/svg">
<g clip-path="url(#clip0_1_192)">
<path d="M15.9717 5.93768C9.6723 5.93768 4.29258 9.85593 2.11298 15.3868C4.29258 20.9177 9.6723 24.836 15.9717 24.836C22.2775 24.836 27.6509 20.9177 29.8305 15.3868C27.6509 9.85593 22.2775 5.93768 15.9717 5.93768ZM15.9717 21.6863C12.4945 21.6863 9.6723 18.8641 9.6723 15.3868C9.6723 11.9096 12.4945 9.0874 15.9717 9.0874C19.449 9.0874 22.2712 11.9096 22.2712 15.3868C22.2712 18.8641 19.449 21.6863 15.9717 21.6863ZM15.9717 11.6072C13.8866 11.6072 12.1921 13.3017 12.1921 15.3868C12.1921 17.472 13.8866 19.1665 15.9717 19.1665C18.0569 19.1665 19.7514 17.472 19.7514 15.3868C19.7514 13.3017 18.0569 11.6072 15.9717 11.6072Z" fill="black"/>
</g>
<defs>
<clipPath id="clip0_1_192">
<rect width="30.2373" height="30.2373" fill="white" transform="translate(0.853088 0.268188)"/>
</clipPath>
</defs>
</svg>
