<svg width="287" height="25" viewBox="0 0 287 25" fill="none" xmlns="http://www.w3.org/2000/svg">
<path d="M274.387 23.3532L276.143 22.987C276.693 22.8829 276.85 22.7782 276.85 22.4641V17.393L271.739 9.57726C271.477 9.18533 271.373 9.08063 271.005 8.9496L270.272 8.68812V7.90426H276.798V8.68812L275.592 8.97592C275.147 9.08063 274.911 9.10637 275.173 9.49888L279.261 15.7726L282.904 9.57726C283.166 9.13269 282.957 9.02799 282.276 8.89754L281.123 8.66295V7.90426H286.18V8.66238L285.421 8.87122C285.001 8.97592 284.766 9.08063 284.503 9.52462L279.864 16.8964V22.4641C279.864 22.8302 279.943 22.856 280.545 22.987L282.328 23.3532V24.1113H274.387V23.3532ZM265.876 18.2529L263.305 11.3058L260.865 18.2529H265.876ZM256.037 23.3595L257.218 23.0746C257.559 22.9967 257.743 22.8411 257.874 22.4784L263.541 7.62505H265.01L270.651 22.5047C270.756 22.789 270.966 22.9967 271.307 23.1003L272.225 23.3595V24.1113H265.614V23.3595L267.004 23.0746C267.451 22.971 267.582 22.8154 267.424 22.4005L266.296 19.3933H260.498L259.422 22.5047C259.291 22.8938 259.474 22.9967 259.79 23.0746L261.154 23.3595V24.1113H256.037V23.3595ZM247.077 23.2485C250.525 23.2485 252.824 20.4775 252.824 15.9031C252.824 12.2172 251.413 8.71444 246.711 8.71444H246.162C245.639 8.71444 244.856 8.87122 244.464 9.05431V22.9613C244.908 23.118 245.744 23.2485 246.554 23.2485H247.077ZM239.291 23.3526L240.728 23.0391C241.355 22.9086 241.433 22.8829 241.433 22.5167V9.52462C241.433 9.18476 241.355 9.10695 240.754 8.97535L239.291 8.66181V7.90426H247.155C251.989 7.90426 256.037 10.701 256.037 15.7984C256.037 20.3997 252.824 24.1113 247.782 24.1113H239.291V23.3526H239.291ZM234.618 15.8401C234.618 12.2493 233.277 8.55481 229.509 8.55481C225.794 8.55481 224.427 12.2493 224.427 15.8396C224.427 19.4562 225.768 23.435 229.51 23.435C233.252 23.435 234.619 19.4562 234.619 15.8396L234.618 15.8401ZM221.15 15.8401C221.15 11.4219 224.53 7.62505 229.509 7.62505C234.49 7.62505 237.896 11.3967 237.896 15.8396C237.896 20.3093 234.516 24.3905 229.51 24.3905C224.53 24.3905 221.15 20.2841 221.15 15.8401ZM203.932 23.0231L206.344 22.5356C207.249 22.3479 207.362 22.3479 207.362 21.8227V2.16091H206.042C203.744 2.16091 202.01 2.64839 201.369 3.06149C200.653 4.1114 199.937 6.21295 199.56 7.82645H198.542L198.806 0.359741C199.56 0.660126 200.879 0.847223 202.273 0.847223H217.237C218.028 0.847223 219.762 0.660126 220.328 0.397504L220.591 7.86421H219.536C219.197 6.25072 218.367 4.1114 217.727 3.09811C216.333 2.27305 215.163 2.16091 213.43 2.16091H211.734V21.8227C211.734 22.3479 211.848 22.3479 212.714 22.5356L215.202 23.0231V24.1113H203.932V23.0231Z" fill="white" fill-opacity="0.58"/>
<path fill-rule="evenodd" clip-rule="evenodd" d="M185.982 18.4653H186.812C187.025 19.5524 187.346 21.0269 187.88 22.0362C188.495 22.7868 189.351 23.5106 190.929 23.5106C193.121 23.5106 194.351 22.1912 194.351 20.3546C194.351 18.5431 193.228 17.7409 191.758 17.1459L190.073 16.473C187.667 15.5158 186.25 14.1964 186.25 11.9198C186.25 9.30671 188.843 7.62513 191.917 7.62513C193.496 7.62513 194.645 8.0388 195.5 8.50454L196.062 7.75501H196.624L196.784 12.8249H196.008C195.794 11.7647 195.313 10.4962 194.858 9.82395C194.19 9.1774 193.335 8.47879 191.891 8.47879C190.394 8.47879 189.137 9.46177 189.137 11.1176C189.137 12.5148 189.858 13.2912 191.329 13.9635L193.762 15.0764C195.393 15.8259 197.425 16.9645 197.425 19.6039C197.425 22.6306 194.778 24.3906 191.223 24.3906C189.191 24.3906 187.96 24.0027 187.131 23.6142L186.678 24.3906H186.089C186.169 23.4328 186.036 20.6389 185.982 18.4653ZM162.044 9.52413C161.888 9.10646 161.627 9.0275 161.236 8.89704L160.584 8.66246V7.90434H167.052V8.66189L165.801 8.94968C165.279 9.08014 165.148 9.1322 165.253 9.47207L168.905 20.6286L172.4 11.1966L171.722 9.52413C171.566 9.10646 171.304 9.00175 170.965 8.89704L170.235 8.66246V7.90434H176.495V8.66189L175.321 8.94968C174.826 9.08014 174.774 9.26323 174.904 9.60252L178.843 20.5503L182.547 9.60252C182.704 9.15852 182.573 9.08014 181.869 8.92336L180.617 8.66189V7.90434H185.703V8.66189L184.869 8.92336C184.503 9.0275 184.268 9.05439 184.086 9.55045L178.425 24.3906H177.226L173.105 13.0773L168.409 24.3906H167.184L162.044 9.52413ZM146.629 23.3533L148.07 23.0397C148.699 22.9093 148.777 22.8835 148.777 22.5174V9.53157C148.777 9.16539 148.699 9.11389 148.096 8.98287L146.629 8.66932V7.91235H157.056C157.79 7.91235 158.76 7.75558 159.153 7.62513L159.624 12.8238H158.916C158.602 11.6222 158.131 10.316 157.607 9.63685C157.03 9.27067 155.511 8.85299 153.86 8.85299H153.624C152.995 8.85299 152.367 8.90506 151.816 9.00976V15.1496H154.724C155.458 14.7056 156.087 13.5293 156.217 12.7191H156.742V18.7033H156.218C155.982 17.6322 155.484 16.7179 154.725 16.195H151.817V23.0146C152.393 23.0929 152.917 23.1971 154.017 23.1971H154.62C155.641 23.1971 157.266 22.9356 158 22.3875C158.549 21.7341 159.257 20.1927 159.598 19.0169H160.305L159.546 24.112H146.629V23.3533ZM125.402 4.81067V17.7015C125.402 19.129 125.552 20.9336 125.628 21.6471C125.703 22.1357 125.817 22.324 126.305 22.3989L129.356 22.8503V23.9397H120.393V22.8503L122.653 22.4744C123.142 22.3989 123.255 22.2112 123.331 21.7226C123.369 20.9708 123.556 19.1668 123.556 17.7387V3.00664C123.556 2.40587 123.406 2.40587 122.465 2.18044L120.619 1.76677V0.63961H127.172L140.542 17.325V6.95284C140.542 5.37425 140.429 3.90894 140.315 3.08217C140.278 2.6313 140.127 2.25539 139.6 2.18044L136.549 1.72901V0.639038H145.512V1.72901L143.291 2.10492C142.839 2.18044 142.538 2.33035 142.538 2.96888C142.5 3.75846 142.349 5.18658 142.349 6.87789V24.3906H141.107L125.402 4.81124V4.81067Z" fill="white" fill-opacity="0.58"/>
<path d="M106.465 23.3532L107.869 23.039C108.493 22.9086 108.571 22.8828 108.571 22.5161V9.52459C108.571 9.15841 108.493 9.13266 107.896 9.00221L106.438 8.66235V7.90423H114.008V8.66235L112.265 9.00221C111.693 9.10634 111.589 9.1853 111.589 9.52459V21.968C111.589 23.1438 112.785 23.1958 113.592 23.1958H113.878C115.101 23.1958 116.531 22.856 117.208 22.3856C117.729 21.7322 118.275 20.7126 118.613 19.8498L119.133 18.4909H119.835L118.639 24.1113H106.464L106.465 23.3532ZM99.8098 18.2529L97.2379 11.3057L94.7988 18.2529H99.8098ZM89.9709 23.3595L91.1518 23.0745C91.4928 22.9967 91.6765 22.8411 91.8075 22.4783L97.4748 7.62502H98.9441L104.584 22.5046C104.689 22.789 104.899 22.9967 105.24 23.1003L106.159 23.3595V24.1113H99.5472V23.3595L100.938 23.0745C101.384 22.971 101.515 22.8153 101.357 22.4005L100.229 19.3932H94.432L93.3564 22.5046C93.2248 22.8937 93.4084 22.9967 93.7231 23.0745L95.0877 23.3595V24.1113H89.9715V23.3595H89.9709ZM74.6204 16.0335C74.6204 11.0917 78.495 7.62502 83.7051 7.62502C85.302 7.62502 86.7685 7.85731 88.0513 8.42719L88.5491 7.78007H89.0983L89.3867 13.3426H88.6795C88.4444 12.2303 87.8939 10.3931 87.3704 9.69453C86.6895 9.07316 85.512 8.45293 83.783 8.45293C79.4374 8.45293 77.9715 12.204 77.9715 15.8779C77.9715 20.406 80.2756 23.4853 83.4173 23.4853C84.9101 23.4853 86.2187 22.8903 86.9258 22.3982C87.502 21.8295 88.3654 19.7337 88.6795 18.6208H89.413L88.5227 23.4327C87.502 23.8984 85.4851 24.3905 83.3126 24.3905C77.6311 24.3905 74.6204 20.4323 74.6204 16.0335ZM65.9681 23.3532L67.3934 23.039C68.0153 22.9086 68.0931 22.8828 68.0931 22.5161V9.52459C68.0931 9.15841 68.0153 9.13266 67.4197 9.00221L65.9681 8.66235V7.90423H73.2249V8.66235L71.799 9.00221C71.2028 9.13266 71.0999 9.15898 71.0999 9.52459V22.5161C71.0999 22.8823 71.1777 22.9086 71.7733 23.039L73.2249 23.3532V24.1113H65.9681V23.3532ZM55.612 23.2485C59.0604 23.2485 61.3594 20.4775 61.3594 15.9031C61.3594 12.2172 59.9484 8.71441 55.2458 8.71441H54.6977C54.1747 8.71441 53.3915 8.87118 52.9995 9.05428V22.9612C53.4435 23.118 54.2795 23.2485 55.0896 23.2485H55.612ZM47.8266 23.3526L49.2633 23.039C49.8904 22.9086 49.9688 22.8828 49.9688 22.5167V9.52459C49.9688 9.18473 49.8904 9.10691 49.2896 8.97532L47.8266 8.66177V7.90423H55.6904C60.5234 7.90423 64.5726 10.701 64.5726 15.7983C64.5726 20.3997 61.3594 24.1113 56.3175 24.1113H47.8266V23.3526ZM32.7547 23.3532L34.196 23.0396C34.8242 22.9092 34.9032 22.8834 34.9032 22.5172V9.53146C34.9032 9.16528 34.8242 9.11378 34.2218 8.98276L32.7547 8.66921V7.91224H43.1824C43.9159 7.91224 44.8851 7.75547 45.2782 7.62502L45.7497 12.8237H45.043C44.7284 11.6221 44.2569 10.3159 43.7334 9.63674C43.1566 9.27055 41.6375 8.85288 39.9863 8.85288H39.7506C39.1217 8.85288 38.4929 8.90494 37.9431 9.00965V15.1495H40.8508C41.5849 14.7055 42.2131 13.5292 42.3442 12.719H42.8683V18.7032H42.3442C42.1084 17.6321 41.6107 16.7178 40.8508 16.1949H37.9425V23.0144C38.5187 23.0928 39.0428 23.197 40.1431 23.197H40.7455C41.7674 23.197 43.3924 22.9355 44.1253 22.3874C44.6757 21.7339 45.3829 20.1925 45.7233 19.0168H46.4311L45.6713 24.1119H32.7547V23.3532ZM0.099762 22.9126L2.64874 22.5367C3.21118 22.4612 3.36051 22.0103 3.43604 21.4828C3.4738 20.7304 3.6237 19.6021 3.6237 17.8719V3.04944C3.6237 2.40976 3.43604 2.44695 2.49884 2.22152L0.548909 1.77009V0.641785H7.67232L15.8067 17.6836L24.2049 0.678975H31.1779V1.7329L29.078 2.25929C28.3291 2.44695 28.1792 2.52248 28.1792 3.01168V21.7088C28.1792 22.2357 28.2913 22.2729 29.1536 22.4612L31.2156 22.9132V24.0037H21.018V22.9126L22.7802 22.4989C23.6425 22.3107 23.7924 22.2357 23.7924 21.7093V5.23109L14.6075 23.9671H14.3821L5.5353 5.68253V17.8341C5.5353 19.4894 5.64744 20.6177 5.72297 21.4078C5.72297 21.897 5.83511 22.4234 6.35978 22.4989L9.02148 22.9126V24.0037H0.099762V22.9126Z" fill="white" fill-opacity="0.58"/>
</svg>
