<svg width="36" height="38" viewBox="0 0 36 38" fill="none" xmlns="http://www.w3.org/2000/svg">
<path d="M28.3806 17.5069L31.7301 17.4693C31.8708 17.4677 31.9695 17.621 31.9113 17.7562C31.4725 18.7745 30.8677 19.7039 30.1243 20.5021L17.6972 33.8701C17.4627 34.1228 17.0719 34.1272 16.8318 33.8799L4.10717 20.7946C3.85345 20.5334 3.61426 20.2569 3.39081 19.9666C3.36742 19.9369 3.35249 19.9009 3.34773 19.8626C3.34297 19.8243 3.34859 19.7855 3.36393 19.7505C3.37926 19.7154 3.4037 19.6857 3.43441 19.6648C3.46512 19.6438 3.50084 19.6324 3.53746 19.6319L9.41889 19.5658C9.73007 19.5643 10.0345 19.4706 10.2973 19.2953C10.5601 19.1201 10.7706 18.8704 10.9049 18.5748L11.6377 16.9845C11.6621 16.9316 11.6996 16.8866 11.7462 16.8542C11.7928 16.8218 11.8468 16.8032 11.9026 16.8003C11.9584 16.7975 12.0139 16.8105 12.0634 16.838C12.1128 16.8655 12.1543 16.9065 12.1835 16.9567L16.4659 24.3102C16.6118 24.5549 16.8682 24.7064 17.1404 24.7034C17.1509 24.7032 17.1613 24.6994 17.1718 24.6993C17.4543 24.6851 17.7106 24.5094 17.8332 24.2397L19.0256 21.6563C19.1277 21.4309 19.3425 21.2888 19.5833 21.2861L21.5792 21.2636C22.2667 21.2559 22.8724 20.8153 23.1196 20.1397L25.4034 13.9065C25.5081 13.6215 25.8934 13.6289 25.9884 13.9179L26.7758 16.3154C26.8904 16.6665 27.1072 16.9708 27.3953 17.1848C27.6835 17.3987 28.0283 17.5115 28.3806 17.5069Z" fill="url(#paint0_linear_1_89)"/>
<path d="M33.0956 16.2073C33.0844 16.2509 33.06 16.2895 33.026 16.3172C32.992 16.3448 32.9504 16.3601 32.9075 16.3605L29.0262 16.4041C28.8943 16.4058 28.7651 16.3637 28.6571 16.2838C28.5491 16.2038 28.4677 16.0901 28.4244 15.9587L27.1199 11.988C27.0115 11.6583 26.7264 11.4372 26.3948 11.4336C26.2349 11.4285 26.0775 11.4762 25.9446 11.57C25.8118 11.6637 25.7101 11.7989 25.6538 11.9566L22.8029 19.7389C22.758 19.8623 22.6788 19.9686 22.5757 20.0439C22.4726 20.1191 22.3503 20.1599 22.2248 20.1609L20.2289 20.1833C19.5903 20.1905 19.0187 20.5719 18.7394 21.1743L17.7616 23.2957L13.1853 15.4352C13.1121 15.3087 13.0079 15.2054 12.8836 15.1363C12.7594 15.0671 12.6197 15.0347 12.4794 15.0424C12.1934 15.0566 11.9406 15.2322 11.8145 15.5021L10.6222 18.0927C10.5165 18.3182 10.3052 18.4603 10.0645 18.463L3.25729 18.5395C3.22124 18.5399 3.18577 18.5299 3.15469 18.5106C3.12361 18.4913 3.09809 18.4635 3.08086 18.4301C1.23651 14.8026 1.7371 10.1902 4.61105 7.09017C8.09711 3.33764 13.7736 3.20396 17.4184 6.74028C17.5313 6.84931 17.7058 6.84735 17.8162 6.73581C21.3806 3.11843 27.0587 3.12444 30.6282 6.79764C33.0828 9.32599 33.9084 12.9459 33.0956 16.2073Z" fill="url(#paint1_linear_1_89)"/>
<defs>
<linearGradient id="paint0_linear_1_89" x1="17.5814" y1="13.7881" x2="17.8092" y2="34.0564" gradientUnits="userSpaceOnUse">
<stop offset="0.371754" stop-color="#FDD9FF"/>
<stop offset="0.734291" stop-color="#C1E7FF"/>
<stop offset="1" stop-color="#C1E7FF" stop-opacity="0"/>
</linearGradient>
<linearGradient id="paint1_linear_1_89" x1="6.77879" y1="6.99414" x2="25.4185" y2="25.6339" gradientUnits="userSpaceOnUse">
<stop offset="0.3125" stop-color="#DDD3EF"/>
<stop offset="0.666667" stop-color="#FDD9FF"/>
</linearGradient>
</defs>
</svg>
