<svg width="46" height="45" viewBox="0 0 46 45" fill="none" xmlns="http://www.w3.org/2000/svg">
<rect width="45.9351" height="44.7248" rx="3.40572" fill="black"/>
<path d="M19.2716 5.12304C16.6166 5.26868 13.6267 6.1048 11.6897 7.2457C10.6187 7.87684 9.52046 8.94491 8.60629 10.2476C7.19732 12.2516 6.65425 13.9454 6.64821 16.3297C6.64218 18.2744 6.97707 19.6769 8.00288 21.9938C8.31062 22.6896 8.41923 22.9243 9.14031 24.4347C10.679 27.6497 11.2613 28.9336 11.4846 29.5863C11.7229 30.2875 11.8285 30.6678 11.7953 30.6975C11.7742 30.7164 11.7833 30.7407 11.8165 30.7703C11.8496 30.8 11.91 30.9888 11.9794 31.2882C12.3716 32.9523 12.5436 34.5706 12.5043 36.2887C12.4802 37.3406 12.4048 38.2037 12.2449 39.2421C12.2147 39.4417 12.1936 39.6089 12.1966 39.6143C12.2117 39.6278 28.2746 39.5658 28.2897 39.5496C28.2987 39.5442 28.3229 39.2016 28.344 38.789C28.4043 37.5806 28.4345 37.4512 28.7452 37.0331C29.2974 36.2995 29.7047 36.1431 31.6597 35.9381C35.4794 35.5308 36.7133 35.1047 37.1448 34.0393C37.3801 33.4567 37.3861 32.5478 37.1689 30.7541L37.1448 30.5599L37.3831 30.2552C37.6637 29.9018 37.7814 29.6834 37.8236 29.4568C37.8598 29.2626 37.8236 29.1035 37.721 28.9821C37.6245 28.8688 37.6275 28.8284 37.7271 28.7205C37.7934 28.6504 37.8115 28.6018 37.8206 28.4589C37.8357 28.2485 37.8115 28.1325 37.6004 27.4825C37.365 26.757 37.2836 26.3901 37.2383 25.8507C37.2172 25.581 37.2685 25.1629 37.3409 25.0119C37.4314 24.8339 37.6909 24.6828 38.2309 24.4967C38.8404 24.2864 39.0878 24.1353 39.2175 23.9034C39.2778 23.7928 39.2869 23.7334 39.2869 23.4907C39.2869 23.1724 39.2628 23.1023 39.0576 22.8326C38.8072 22.5035 38.0288 21.6836 36.8974 20.5616C35.8022 19.4719 35.4794 19.1051 35.3496 18.7976C35.2772 18.6277 35.232 17.7403 35.232 16.4835C35.2289 15.2239 35.1867 14.0075 35.1264 13.6137C35.0238 12.9232 34.6195 11.812 34.1428 10.9246C33.642 9.99141 33.1321 9.32521 32.3959 8.64553C31.2102 7.55048 29.6655 6.72245 27.4479 5.99152C25.9575 5.50064 24.7114 5.26329 22.9977 5.15001C22.4365 5.11225 19.8268 5.09337 19.2716 5.12304Z" fill="url(#paint0_linear_1_269)"/>
<defs>
<linearGradient id="paint0_linear_1_269" x1="22.9675" y1="39.6162" x2="22.9675" y2="5.10845" gradientUnits="userSpaceOnUse">
<stop stop-color="#DDD3EF" stop-opacity="0.55"/>
<stop offset="0.541667" stop-color="#FDD9FF"/>
<stop offset="1" stop-color="#C1E7FF"/>
</linearGradient>
</defs>
</svg>
