<svg width="16" height="17" viewBox="0 0 16 17" fill="none" xmlns="http://www.w3.org/2000/svg">
<path d="M13.0472 15.5845C12.5141 15.9642 9.09316 13.557 8.43798 13.5517C7.7828 13.5465 4.3234 15.8983 3.79647 15.5101C3.26955 15.1218 4.50832 11.1337 4.31091 10.5107C4.11349 9.8878 0.801324 7.33378 1.0088 6.71408C1.21632 6.09437 5.40282 6.03681 5.93596 5.65706C6.46911 5.27736 7.88151 1.34706 8.53674 1.3523C9.19187 1.35759 10.5405 5.31011 11.0674 5.69839C11.5943 6.08662 15.7794 6.21159 15.9769 6.83453C16.1743 7.45747 12.8212 9.95786 12.6137 10.5776C12.4062 11.1973 13.5803 15.2047 13.0472 15.5845Z" fill="#F8B84E"/>
</svg>
