<svg width="39" height="39" viewBox="0 0 39 39" fill="none" xmlns="http://www.w3.org/2000/svg">
<g clip-path="url(#clip0_1_244)">
<path d="M20.7949 39C30.8493 39 39 30.2696 39 19.5C39 8.73045 30.8493 0 20.7949 0C10.7405 0 2.58984 8.73045 2.58984 19.5C2.58984 30.2696 10.7405 39 20.7949 39Z" fill="black"/>
<path d="M34.5929 11.7432C33.6732 12.1513 32.6853 12.4272 31.6466 12.5512C32.7066 11.9164 33.5188 10.9105 33.9022 9.71331C32.8952 10.3114 31.7931 10.7325 30.6439 10.9582C29.7086 9.96128 28.3749 9.33887 26.8994 9.33887C24.0673 9.33887 21.7704 11.6348 21.7704 14.4687C21.7704 14.8702 21.8156 15.2619 21.9025 15.638C17.6391 15.4237 13.8592 13.3815 11.3292 10.2783C10.8874 11.0362 10.6346 11.9174 10.6346 12.8575C10.6346 14.637 11.5403 16.2071 12.9166 17.1268C12.1018 17.1016 11.305 16.8817 10.5927 16.4855V16.5503C10.5927 19.036 12.3606 21.1086 14.7075 21.58C14.2764 21.6981 13.824 21.7598 13.3559 21.7598C13.025 21.7598 12.7039 21.7285 12.3902 21.6695C13.043 23.7068 14.9375 25.1898 17.1817 25.2317C15.426 26.608 13.2138 27.4284 10.8111 27.4284C10.3973 27.4284 9.98825 27.4037 9.58673 27.3553C11.8573 28.8112 14.5532 29.6611 17.4502 29.6611C26.8854 29.6611 32.0456 21.8444 32.0456 15.0657C32.0456 14.8432 32.0407 14.6223 32.03 14.4022C33.0354 13.675 33.9032 12.7746 34.5929 11.7432Z" fill="white"/>
</g>
<defs>
<clipPath id="clip0_1_244">
<rect width="39" height="39" fill="white"/>
</clipPath>
</defs>
</svg>
